<svg width="120" height="27" viewBox="0 0 120 27" fill="none" xmlns="http://www.w3.org/2000/svg">
<path d="M17.1375 0V16.0523C17.1375 17.9707 16.7387 19.3408 15.9498 20.1224C15.1575 20.9075 13.9141 21.3062 12.2527 21.3062C11.1609 21.3062 10.2484 21.1286 9.53785 20.7787C8.8465 20.4393 8.31362 19.8787 7.95662 19.1127C7.58918 18.3293 7.40459 17.2744 7.40459 15.9757V0H0V16.155C0 18.5522 0.498051 20.5768 1.47848 22.1714C2.46065 23.7695 3.87818 24.9759 5.68927 25.7541C7.48121 26.5252 9.6284 26.9152 12.0682 26.9152C14.5079 26.9152 16.6238 26.5514 18.4418 25.8324C20.2773 25.1065 21.7314 23.9471 22.7675 22.3873C23.802 20.8292 24.3261 18.8342 24.3261 16.4597V0H17.1392H17.1375Z" fill="#084153"/>
<path d="M46.2305 0V17.5199L37.0061 0H27.2767V25.9473H33.774V7.03475L44.2174 25.9473H52.7661V0H46.2305Z" fill="#084153"/>
<path d="M60.9017 17.0235C60.5969 17.5475 60.4368 18.1432 60.4368 18.7491V25.9492H65.3108V17.4746C65.3108 16.0838 64.8877 14.7261 64.0989 13.5772V13.5752L63.6858 12.9737L60.9017 17.0235ZM55.5628 8.47464C55.5628 9.86551 55.9859 11.2232 56.7747 12.3721L57.1888 12.9737L59.972 8.92386C60.2767 8.39986 60.4368 7.80409 60.4368 7.19827V3.05176e-05H55.5628V8.47464Z" fill="#084153"/>
<path d="M67.4462 0V5.85272H75.9497V26.2084H83.1679V5.85272H91.6713V0H67.4462Z" fill="#52C2CF"/>
<path d="M111.814 3.05176e-05L106.348 10.8925L100.916 3.05176e-05H92.7749L102.395 17.1473V26.2084H109.5V17.1473L119.079 3.05176e-05H111.814Z" fill="#52C2CF"/>
<path d="M56.779 13.5751L59.9762 8.92357C60.281 8.39957 60.4412 7.8042 60.4412 7.19839V0H65.3155V8.47443C65.3155 9.86536 64.8923 11.2232 64.1034 12.3722L60.9062 17.0237C60.6014 17.5477 60.4412 18.1431 60.4412 18.7489V25.949H55.5669V17.4746C55.5669 16.0837 55.9901 14.7258 56.779 13.5768V13.5751Z" fill="#52C2CF"/>
</svg>
